<?xml version="1.0" encoding="utf-8"?>
<!-- Generator: Adobe Illustrator 15.0.2, SVG Export Plug-In . SVG Version: 6.00 Build 0)  -->
<!DOCTYPE svg PUBLIC "-//W3C//DTD SVG 1.1//EN" "http://www.w3.org/Graphics/SVG/1.1/DTD/svg11.dtd">
<svg version="1.1" id="Layer_1" xmlns="http://www.w3.org/2000/svg" xmlns:xlink="http://www.w3.org/1999/xlink" x="0px" y="0px"
	 width="875.209px" height="339.591px" viewBox="209.639 59.957 875.209 339.591"
	 enable-background="new 209.639 59.957 875.209 339.591" xml:space="preserve">
<g opacity="0.17">
	<path fill="#FFFFFF" d="M209.639,258.751l115.198-143.598h82.799v157.598h21.2v43.199h-21.2v26h21.601v52.799H299.637v-52.799h25.2
		v-26H209.639V258.751z M324.837,272.751v-73.999l-59.199,73.999H324.837z"/>
	<path fill="#FFFFFF" d="M441.238,253.552c0-84.799,46.398-143.598,112.797-143.598c78.398,0,114.799,57.999,114.799,146.397
		c0,88.799-40.4,143.197-112.799,143.197C489.237,399.55,441.238,351.951,441.238,253.552z M588.438,256.352
		c0-47.599-15.201-81.999-34.801-81.999c-14.8-0.4-33.2,30.399-33.2,79.199c0,51.599,19.6,83.998,35.6,83.998
		C574.436,337.55,588.438,305.151,588.438,256.352z"/>
	<path fill="#FFFFFF" d="M674.838,258.751l115.197-143.598h82.799v157.598h21.201v43.199h-21.201v26h21.6v52.799H764.836v-52.799
		h25.199v-26H674.838V258.751z M790.036,272.751v-73.999l-59.199,73.999H790.036z"/>
</g>
<radialGradient id="SVGID_1_" cx="1098.9614" cy="-657.3325" r="122.3199" gradientTransform="matrix(1.0766 0 0 -0.1727 -284.1606 265.1972)" gradientUnits="userSpaceOnUse">
	<stop  offset="0" style="stop-color:#757475;stop-opacity:0.8085"/>
	<stop  offset="0.1694" style="stop-color:#595759;stop-opacity:0.6715"/>
	<stop  offset="0.3768" style="stop-color:#3D3B3E;stop-opacity:0.5038"/>
	<stop  offset="0.5852" style="stop-color:#2A272B;stop-opacity:0.3354"/>
	<stop  offset="0.793" style="stop-color:#1E1B1F;stop-opacity:0.1674"/>
	<stop  offset="1" style="stop-color:#1A171B;stop-opacity:0"/>
</radialGradient>
<ellipse opacity="0.5" fill="url(#SVGID_1_)" enable-background="new    " cx="898.981" cy="378.718" rx="185.867" ry="18.002"/>
<g>
	<path fill="#FFFFFF" d="M897.526,137.582c-10.025,0-18.617,4.476-22.166,10.818h44.338
		C916.149,142.058,907.565,137.582,897.526,137.582z"/>
	<path fill="#00575F" d="M979.627,296.001c-1.387,0-2.627-2.742-3.129-5.453c-0.076-0.387-0.135-0.793-0.18-1.196
		c-0.457-0.015-0.91-0.063-1.342-0.14c-0.057,0.143-0.105,0.281-0.162,0.42c-1.119,2.802-2.74,4.754-3.93,4.754
		c-0.133,0-0.264-0.024-0.381-0.07c-1.359-0.547-0.953-3.688,0.123-6.363c0.066-0.168,0.141-0.332,0.213-0.494
		c-0.541-0.394-1.043-0.845-1.5-1.342c-0.104,0.059-0.209,0.12-0.309,0.176c-1.768,0.989-3.562,1.586-4.801,1.586
		c-0.936,0-1.33-0.35-1.492-0.641c-0.717-1.279,1.572-3.466,4.08-4.877c0.105-0.055,0.215-0.113,0.312-0.169
		c-0.098-0.329-0.178-0.653-0.234-0.974c-0.082-0.442-0.139-0.907-0.154-1.379c-0.25,0.011-0.488,0.017-0.729,0.017
		c-2.361,0-4.787-0.567-4.887-1.847c-0.055-0.676,0.551-1.299,1.734-1.809c1.062-0.46,2.498-0.771,4.033-0.886
		c0.24-0.017,0.479-0.03,0.713-0.039c1.348-2.974,4.049-5.093,7.266-5.698c1.756-0.33,3.557-0.181,5.225,0.426
		c1.645-2.816,2.65-5.922,2.996-9.234c0.281-2.696,0.107-5.395-0.514-8.021c-2.682-0.266-4.867-2.25-5.365-4.908
		c-0.283-1.551,0.029-3.113,0.893-4.428c-0.043-0.064-0.096-0.129-0.141-0.189c-3.117-3.968-7.256-6.828-11.979-8.287
		c-1.623,5.221-6.51,8.839-12,8.839c-5.201,0-9.785-3.12-11.684-7.968l-1.139-1.45l0.246-0.196c0.104-0.083,0.205-0.156,0.311-0.232
		l0.01-0.007c-0.193-0.888-0.295-1.799-0.295-2.704c0-6.922,5.627-12.554,12.551-12.554c6.164,0,11.342,4.36,12.375,10.4
		c6.408,1.656,11.977,5.313,16.133,10.598c0.26,0.334,0.516,0.674,0.76,1.014c2.875,0.043,5.336,2.105,5.861,4.939
		c0.322,1.713-0.109,3.469-1.178,4.838c0.971,3.567,1.262,7.236,0.879,10.912c-0.455,4.375-1.83,8.442-4.086,12.104
		c0.891,1.201,1.506,2.605,1.781,4.084c0.49,2.623-0.105,5.363-1.635,7.546c0.525,0.706,1.021,1.526,1.439,2.379
		c0.674,1.383,1.129,2.774,1.27,3.927c0.158,1.283-0.078,2.11-0.682,2.412c-0.141,0.064-0.295,0.102-0.463,0.102l0,0
		c-1.174,0-2.896-1.836-4.178-4.459c-0.234-0.463-0.428-0.934-0.609-1.408c-0.328,0.187-0.662,0.352-0.998,0.496
		c0.105,0.402,0.193,0.793,0.266,1.18c0.465,2.472,0.326,4.717-0.348,5.713c-0.215,0.309-0.475,0.495-0.775,0.55
		C979.747,296,979.684,296.001,979.627,296.001z"/>
	<path fill="#00575F" d="M822.247,294.798c-1.396,0-2.242-2.813-2.355-5.59c-0.014-0.373-0.014-0.756,0-1.139
		c-0.34-0.066-0.68-0.146-1.006-0.246c-0.064,0.477-0.146,0.956-0.262,1.424c-0.588,2.518-1.867,5.068-3.178,5.068
		c-0.078,0-0.15-0.011-0.225-0.025c-0.285-0.065-0.521-0.256-0.713-0.557c-0.609-0.975-0.645-3.124-0.102-5.47
		c0.215-0.892,0.496-1.755,0.83-2.511c-1.908-1.732-3.014-4.082-3.119-6.653c-0.062-1.394,0.189-2.761,0.738-4.06
		c-5.385-5.469-8.27-13.062-7.938-20.885c-1.227-1.047-1.957-2.545-2.027-4.15c-0.109-2.688,1.672-5.106,4.25-5.811
		c0.168-0.396,0.342-0.792,0.527-1.188c3.959-8.39,11.672-14.37,20.666-16.028c1.344-5.575,6.445-9.601,12.203-9.601
		c6.926,0,12.553,5.633,12.553,12.561c0,6.922-5.627,12.557-12.553,12.557c-5.795,0-10.881-4.034-12.215-9.639
		c-6.697,1.576-12.459,6.271-15.449,12.607c-0.033,0.08-0.068,0.156-0.104,0.234c1.027,1.027,1.615,2.385,1.678,3.834
		c0.104,2.512-1.449,4.809-3.795,5.66c-0.037,5.756,2.113,11.357,5.943,15.449c1.406-0.872,3.004-1.374,4.645-1.439
		c3.121-0.123,6.082,1.289,7.955,3.748c0.221-0.043,0.439-0.082,0.656-0.119c0.768-0.115,1.51-0.176,2.215-0.176
		c2.201,0,3.596,0.547,3.736,1.461c0.207,1.312-2.225,2.432-4.82,2.906c0.088,0.452,0.135,0.885,0.154,1.303
		c0.01,0.295,0.006,0.6-0.02,0.938c0.105,0.032,0.213,0.062,0.322,0.095c1.404,0.411,2.676,0.992,3.576,1.633
		c1.006,0.717,1.443,1.422,1.262,2.041c-0.197,0.674-1.086,1.045-2.5,1.045c-1.043,0-2.311-0.203-3.561-0.572
		c-0.113-0.033-0.223-0.065-0.322-0.098c-0.318,0.562-0.686,1.086-1.09,1.553c0.104,0.129,0.201,0.264,0.293,0.4
		c1.574,2.26,2.623,5.098,1.475,5.901c-0.176,0.118-0.381,0.182-0.619,0.182c-1.135,0-2.9-1.452-4.408-3.614
		c-0.078-0.113-0.158-0.231-0.23-0.346c-0.391,0.165-0.793,0.303-1.191,0.411c0.049,0.382,0.076,0.761,0.09,1.132
		c0.109,2.753-0.527,5.715-1.932,5.77L822.247,294.798z"/>
	<path fill="#FFFFFF" d="M942.971,204.258H851.85c-6.791,0-12.297,5.507-12.297,12.294v96.481c0,6.787,5.506,12.293,12.297,12.293
		h5.355c-0.004,0.117-0.02,0.232-0.02,0.354c0,1.238,0.264,2.42,0.727,3.502c-0.463,1.083-0.727,2.261-0.727,3.501
		c0,1.235,0.264,2.418,0.727,3.499c-0.463,1.087-0.727,2.264-0.727,3.502c0,1.236,0.264,2.416,0.727,3.503
		c-0.463,1.084-0.727,2.263-0.727,3.502c0,1.235,0.264,2.415,0.727,3.497c-0.463,1.087-0.727,2.264-0.727,3.502
		c0,1.176,0.242,2.294,0.662,3.332c-0.818,0.443-1.623,0.923-2.422,1.443c-8.713,5.693-13.314,13.914-10.662,18.923
		c-0.229,1.837,0.037,3.521,0.898,4.922c1.307,2.137,3.832,3.312,7.121,3.312c4.264,0,9.455-1.906,14.23-5.236
		c8.482-5.918,12.949-14.256,10.533-19.387c0.092-1.44-0.172-2.773-0.842-3.92c0.436-1.056,0.684-2.188,0.684-3.388
		c0-1.239-0.264-2.416-0.73-3.502c0.467-1.082,0.73-2.263,0.73-3.497c0-1.24-0.264-2.418-0.73-3.502
		c0.467-1.087,0.73-2.268,0.73-3.503c0-1.239-0.264-2.415-0.73-3.502c0.467-1.081,0.73-2.265,0.73-3.499
		c0-1.241-0.264-2.418-0.73-3.501c0.467-1.082,0.73-2.265,0.73-3.502c0-0.121-0.014-0.236-0.023-0.354h40.686
		c0,0.053-0.01,0.104-0.01,0.162c0,1.234,0.264,2.416,0.732,3.5c-0.469,1.084-0.732,2.262-0.732,3.504
		c0,1.234,0.264,2.414,0.732,3.5c-0.469,1.082-0.732,2.26-0.732,3.502c0,1.235,0.264,2.416,0.732,3.502
		c-0.469,1.084-0.732,2.262-0.732,3.5s0.264,2.418,0.732,3.502c-0.469,1.082-0.732,2.26-0.732,3.5c0,1.195,0.248,2.33,0.684,3.387
		c-0.668,1.15-0.93,2.479-0.844,3.918c-2.41,5.127,2.055,13.471,10.535,19.383c4.773,3.332,9.963,5.245,14.236,5.245
		c3.287,0,5.82-1.179,7.119-3.312c0.855-1.398,1.135-3.09,0.896-4.927c2.652-5.003-1.945-13.229-10.66-18.917
		c-0.803-0.525-1.609-1.002-2.424-1.445c0.418-1.037,0.658-2.158,0.658-3.332c0-1.24-0.264-2.418-0.727-3.5
		c0.465-1.084,0.727-2.264,0.727-3.502s-0.264-2.416-0.727-3.5c0.465-1.086,0.727-2.267,0.727-3.502c0-1.242-0.264-2.42-0.727-3.502
		c0.465-1.086,0.727-2.266,0.727-3.5c0-1.242-0.264-2.419-0.727-3.504c0.465-1.083,0.727-2.265,0.727-3.5
		c0-0.058-0.004-0.109-0.004-0.162h4.73c6.793,0,12.301-5.505,12.301-12.293v-96.48
		C955.272,209.765,949.764,204.258,942.971,204.258z"/>
	<path fill="#00575F" d="M942.971,202.123H851.85c-7.955,0-14.434,6.47-14.434,14.429v96.481c0,7.955,6.479,14.428,14.434,14.428
		h5.305c0.115,0.408,0.248,0.812,0.418,1.199c-0.484,1.108-0.762,2.316-0.762,3.584c0,1.267,0.275,2.473,0.762,3.584
		c-0.484,1.113-0.762,2.32-0.762,3.588c0,1.267,0.275,2.475,0.762,3.586c-0.484,1.109-0.762,2.317-0.762,3.588
		c0,1.263,0.275,2.472,0.762,3.582c-0.484,1.107-0.762,2.32-0.762,3.582c0,1.205,0.26,2.35,0.695,3.412
		c-0.857,0.455-1.701,0.947-2.545,1.48c-9.131,5.826-13.953,14.25-11.174,19.377c-0.244,1.883,0.041,3.605,0.939,5.04
		c1.369,2.19,4.02,3.394,7.467,3.394h0.006c4.465,0,9.908-1.955,14.914-5.373c8.889-6.051,13.576-14.594,11.047-19.848
		c0.09-1.472-0.188-2.832-0.885-4.012c0.447-1.079,0.709-2.242,0.709-3.471c0-1.262-0.27-2.475-0.754-3.582
		c0.484-1.11,0.754-2.318,0.754-3.582c0-1.27-0.27-2.479-0.754-3.588c0.484-1.111,0.754-2.319,0.754-3.586
		c0-1.268-0.27-2.475-0.754-3.588c0.484-1.11,0.754-2.316,0.754-3.584c0-1.269-0.27-2.477-0.754-3.584
		c0.168-0.388,0.301-0.791,0.414-1.199h40.512c0.119,0.408,0.254,0.812,0.422,1.199c-0.488,1.108-0.758,2.316-0.758,3.584
		c0,1.267,0.27,2.473,0.758,3.584c-0.488,1.113-0.758,2.32-0.758,3.588c0,1.267,0.27,2.475,0.758,3.586
		c-0.488,1.109-0.758,2.317-0.758,3.588c0,1.263,0.27,2.472,0.758,3.582c-0.488,1.107-0.758,2.32-0.758,3.582
		c0,1.229,0.258,2.392,0.717,3.471c-0.709,1.178-0.986,2.54-0.887,4.012c-2.531,5.254,2.15,13.797,11.043,19.848
		c5.006,3.418,10.445,5.373,14.916,5.373c3.447,0,6.102-1.203,7.473-3.394c0.898-1.435,1.186-3.157,0.934-5.04
		c2.783-5.127-2.037-13.551-11.174-19.377c-0.836-0.533-1.684-1.025-2.543-1.48c0.441-1.062,0.697-2.207,0.697-3.412
		c0-1.262-0.275-2.475-0.762-3.582c0.486-1.11,0.762-2.318,0.762-3.582c0-1.271-0.275-2.479-0.762-3.588
		c0.486-1.111,0.762-2.319,0.762-3.586c0-1.268-0.275-2.475-0.762-3.588c0.486-1.111,0.762-2.316,0.762-3.584
		c0-1.269-0.275-2.477-0.762-3.584c0.17-0.388,0.305-0.791,0.418-1.199h4.318c7.959,0,14.438-6.474,14.438-14.428v-96.481
		C957.409,208.593,950.93,202.123,942.971,202.123z M865.071,375.018c-4.582,2.92-9.494,4.594-13.48,4.594
		c-2.783,0-4.855-0.854-5.814-2.407c-0.623-1.013-0.773-2.27-0.523-3.662c0.729-4.049,4.879-9.277,10.861-13.096
		c0.25-0.158,0.5-0.314,0.752-0.465c-0.035,0.312-0.055,0.626-0.055,0.945c0,0.251,0.021,0.501,0.041,0.748
		c0.422,4.992,4.984,8.943,10.543,8.943c1.365,0,2.658-0.244,3.854-0.672C869.543,371.751,867.458,373.496,865.071,375.018z
		 M867.395,368.479c-4.654,0-8.449-3.388-8.449-7.554c0-0.158,0.016-0.309,0.021-0.469c0.025-0.248,0.059-0.498,0.104-0.742
		c0.135,0.16,0.295,0.311,0.445,0.468c1.934,1.993,4.746,3.266,7.879,3.266c3.389,0,6.398-1.464,8.34-3.733
		c0.072,0.396,0.123,0.797,0.123,1.211C875.856,365.091,872.063,368.479,867.395,368.479z M875.735,354.971
		c-0.023,0.153-0.066,0.309-0.104,0.458c-0.168,0.68-0.432,1.32-0.791,1.915c-0.029,0.046-0.059,0.087-0.092,0.131
		c-0.098,0.157-0.201,0.31-0.312,0.456c-1.521,2.038-4.105,3.381-7.043,3.381c-2.246,0-4.291-0.801-5.801-2.092
		c-0.416-0.35-0.793-0.725-1.115-1.141c-0.189-0.236-0.355-0.481-0.516-0.736c-0.215-0.355-0.398-0.732-0.547-1.121
		c-0.152-0.405-0.273-0.821-0.346-1.254c-0.072-0.396-0.125-0.799-0.125-1.215c0-0.414,0.053-0.813,0.125-1.211
		c0.877,1.031,1.99,1.884,3.242,2.52c1.18,0.598,2.482,1.004,3.879,1.148c0.395,0.041,0.801,0.063,1.203,0.063
		c1.025,0,2.002-0.146,2.941-0.394c1.207-0.325,2.322-0.836,3.314-1.504c0.779-0.525,1.488-1.137,2.084-1.834
		c0.072,0.395,0.121,0.797,0.121,1.211C875.856,354.173,875.807,354.574,875.735,354.971z M875.735,347.8
		c-0.154,0.847-0.457,1.646-0.895,2.373c-1.01,1.664-2.699,2.947-4.729,3.563c-0.854,0.257-1.768,0.404-2.719,0.404
		c-0.428,0-0.855-0.033-1.271-0.089c-2.668-0.362-4.924-1.84-6.162-3.879c-0.443-0.727-0.744-1.526-0.891-2.375
		c-0.074-0.396-0.125-0.795-0.125-1.207c0-0.42,0.051-0.82,0.125-1.221c0.373,0.438,0.795,0.834,1.242,1.209
		c0.568,0.473,1.201,0.893,1.869,1.246c1.543,0.803,3.314,1.279,5.211,1.279c1.902,0,3.68-0.477,5.219-1.281
		c0.676-0.352,1.305-0.771,1.871-1.244c0.453-0.373,0.879-0.77,1.252-1.207c0.072,0.399,0.121,0.801,0.121,1.219
		C875.856,347.003,875.807,347.403,875.735,347.8z M875.735,340.634c-0.154,0.842-0.457,1.641-0.895,2.369
		c-0.553,0.908-1.311,1.703-2.211,2.34c-0.766,0.539-1.641,0.964-2.592,1.248c-0.83,0.244-1.721,0.377-2.645,0.377
		c-0.916,0-1.807-0.133-2.641-0.377c-0.941-0.284-1.816-0.709-2.586-1.248c-0.904-0.637-1.652-1.432-2.207-2.34
		c-0.438-0.729-0.744-1.527-0.891-2.369c-0.074-0.398-0.125-0.803-0.125-1.217c0-0.416,0.051-0.819,0.125-1.215
		c1.934,2.269,4.947,3.733,8.322,3.733c3.391,0,6.4-1.465,8.342-3.733c0.072,0.396,0.121,0.799,0.121,1.215
		C875.856,339.832,875.807,340.235,875.735,340.634z M875.735,333.458c-0.156,0.846-0.457,1.646-0.895,2.371
		c-1.432,2.362-4.23,3.971-7.445,3.971c-3.203,0-6.002-1.608-7.434-3.971c-0.439-0.725-0.744-1.525-0.893-2.371
		c-0.072-0.396-0.125-0.801-0.125-1.213c0-0.416,0.053-0.816,0.125-1.213c0.375,0.438,0.795,0.834,1.238,1.205
		c0.572,0.475,1.201,0.893,1.873,1.248c1.543,0.807,3.314,1.283,5.213,1.283c1.9,0,3.68-0.477,5.221-1.283
		c0.674-0.355,1.303-0.771,1.869-1.248c0.451-0.371,0.879-0.771,1.25-1.205c0.072,0.396,0.123,0.797,0.123,1.213
		C875.856,332.656,875.807,333.063,875.735,333.458z M874.84,328.662c-0.553,0.908-1.311,1.703-2.211,2.34
		c-0.766,0.545-1.635,0.965-2.58,1.244c-0.838,0.248-1.729,0.389-2.654,0.389c-0.918,0-1.811-0.141-2.641-0.389
		c-0.945-0.277-1.816-0.699-2.586-1.244c-0.904-0.637-1.652-1.432-2.207-2.34c-0.23-0.385-0.42-0.785-0.576-1.201h16.027
		C875.258,327.876,875.071,328.277,874.84,328.662z M919.956,360.925c0-0.414,0.045-0.814,0.119-1.211
		c1.938,2.271,4.949,3.734,8.334,3.734c3.143,0,5.943-1.273,7.885-3.267c0.154-0.157,0.311-0.308,0.451-0.468
		c0.039,0.246,0.07,0.496,0.092,0.742c0.014,0.16,0.021,0.312,0.021,0.469c0,4.166-3.789,7.554-8.449,7.554
		C923.747,368.479,919.956,365.091,919.956,360.925z M921.321,332.238c0.57,0.475,1.195,0.893,1.875,1.248
		c1.539,0.807,3.311,1.283,5.213,1.283c1.9,0,3.674-0.477,5.215-1.283c0.676-0.355,1.297-0.771,1.871-1.248
		c0.449-0.371,0.873-0.77,1.25-1.205c0.068,0.396,0.113,0.797,0.113,1.213c0,0.412-0.045,0.817-0.113,1.213
		c-0.16,0.846-0.461,1.646-0.902,2.371c-1.432,2.362-4.227,3.971-7.434,3.971c-3.211,0-6.01-1.608-7.436-3.971
		c-0.443-0.725-0.75-1.525-0.898-2.371c-0.074-0.396-0.119-0.801-0.119-1.213c0-0.416,0.045-0.816,0.119-1.213
		C920.45,331.466,920.872,331.867,921.321,332.238z M920.393,327.46h16.029c-0.158,0.418-0.348,0.816-0.58,1.201
		c-0.549,0.908-1.305,1.703-2.203,2.34c-0.762,0.545-1.637,0.965-2.586,1.244c-0.834,0.248-1.725,0.389-2.645,0.389
		c-0.926,0-1.811-0.141-2.648-0.389c-0.945-0.277-1.812-0.699-2.582-1.244c-0.9-0.637-1.656-1.432-2.205-2.34
		C920.737,328.277,920.551,327.876,920.393,327.46z M920.075,338.203c1.938,2.269,4.949,3.733,8.334,3.733
		c3.381,0,6.391-1.465,8.336-3.733c0.068,0.396,0.113,0.799,0.113,1.215c0,0.414-0.045,0.817-0.113,1.217
		c-0.16,0.842-0.461,1.641-0.902,2.369c-0.549,0.908-1.305,1.703-2.205,2.34c-0.768,0.539-1.639,0.964-2.588,1.248
		c-0.83,0.244-1.721,0.377-2.641,0.377c-0.926,0-1.811-0.133-2.645-0.377c-0.945-0.284-1.816-0.709-2.586-1.248
		c-0.9-0.637-1.658-1.432-2.205-2.34c-0.443-0.729-0.75-1.527-0.898-2.369c-0.074-0.398-0.119-0.803-0.119-1.217
		C919.956,339.001,920,338.598,920.075,338.203z M920.075,345.371c0.375,0.438,0.797,0.834,1.25,1.209
		c0.566,0.473,1.191,0.893,1.873,1.242c1.541,0.807,3.309,1.282,5.211,1.282c1.9,0,3.674-0.476,5.215-1.278
		c0.676-0.354,1.297-0.773,1.871-1.248c0.449-0.373,0.873-0.77,1.25-1.207c0.068,0.399,0.113,0.801,0.113,1.219
		c0,0.412-0.045,0.812-0.113,1.209c-0.16,0.848-0.461,1.646-0.902,2.373c-1.23,2.041-3.494,3.518-6.152,3.879
		c-0.418,0.057-0.848,0.09-1.281,0.09c-0.953,0-1.857-0.146-2.711-0.404c-2.027-0.617-3.727-1.9-4.725-3.564
		c-0.447-0.726-0.748-1.525-0.896-2.371c-0.074-0.397-0.119-0.799-0.119-1.211C919.956,346.171,920,345.771,920.075,345.371z
		 M920.075,352.542c0.596,0.699,1.309,1.31,2.086,1.834c0.986,0.668,2.102,1.18,3.311,1.504c0.934,0.248,1.916,0.395,2.938,0.395
		c0.406,0,0.811-0.021,1.207-0.062c1.393-0.146,2.703-0.553,3.879-1.149c1.258-0.636,2.365-1.489,3.25-2.519
		c0.07,0.396,0.115,0.797,0.115,1.211c0,0.416-0.045,0.816-0.115,1.214c-0.084,0.433-0.197,0.85-0.352,1.254
		c-0.146,0.389-0.328,0.765-0.551,1.121c-0.15,0.255-0.324,0.5-0.51,0.735c-0.326,0.418-0.705,0.793-1.111,1.142
		c-1.52,1.292-3.557,2.092-5.812,2.092c-2.934,0-5.52-1.344-7.029-3.381c-0.117-0.146-0.225-0.3-0.32-0.456
		c-0.031-0.044-0.059-0.085-0.084-0.131c-0.359-0.594-0.623-1.235-0.793-1.915c-0.039-0.149-0.08-0.304-0.105-0.458
		c-0.074-0.396-0.119-0.799-0.119-1.217C919.956,353.341,920,352.938,920.075,352.542z M938.956,361.673
		c0.02-0.246,0.041-0.496,0.041-0.748c0-0.317-0.018-0.631-0.055-0.944c0.254,0.149,0.506,0.308,0.76,0.465
		c5.979,3.817,10.129,9.046,10.854,13.097c0.252,1.393,0.102,2.648-0.527,3.66c-0.949,1.555-3.016,2.408-5.812,2.408
		c-3.982,0-8.898-1.674-13.477-4.594c-2.385-1.521-4.477-3.268-6.182-5.072c1.195,0.428,2.486,0.672,3.852,0.672
		C933.969,370.617,938.536,366.667,938.956,361.673z M955.272,313.033c0,6.788-5.508,12.293-12.301,12.293h-3.992h-2.133h-16.879
		h-2.139h-65.98c-6.791,0-12.297-5.505-12.297-12.293v-96.48c0-6.788,5.506-12.294,12.297-12.294h91.121
		c6.793,0,12.303,5.507,12.303,12.294V313.033L955.272,313.033z"/>
	<circle fill="#FFFFFF" cx="897.426" cy="115.499" r="2.279"/>
	<path fill="#00AEC5" d="M898.551,115.497c0-0.622-0.498-1.128-1.123-1.128s-1.131,0.506-1.131,1.128
		c0,0.627,0.506,1.133,1.131,1.133S898.551,116.124,898.551,115.497z"/>
	<path fill="#FFFFFF" d="M960.094,169.53c0-1.467-1.186-2.656-2.65-2.656c-1.463,0-2.656,1.189-2.656,2.656
		c0,1.464,1.193,2.651,2.656,2.651C958.909,172.181,960.094,170.994,960.094,169.53z"/>
	<path fill="#00AEC5" d="M957.438,167.985c-0.85,0-1.539,0.689-1.539,1.545c0,0.853,0.689,1.546,1.539,1.546
		c0.855,0,1.549-0.694,1.549-1.546C958.985,168.674,958.293,167.985,957.438,167.985z"/>
	<path fill="#FFFFFF" d="M840.104,169.437c0-1.456-1.176-2.642-2.637-2.642c-1.453,0-2.635,1.186-2.635,2.642
		c0,1.458,1.182,2.638,2.635,2.638C838.928,172.075,840.104,170.895,840.104,169.437z"/>
	<path fill="#00AEC5" d="M838.346,168.164c-0.254-0.174-0.551-0.273-0.877-0.273c-0.32,0-0.627,0.099-0.877,0.273
		c-0.406,0.278-0.676,0.743-0.676,1.273c0,0.528,0.27,0.992,0.676,1.271c0.25,0.17,0.557,0.273,0.877,0.273
		c0.326,0,0.623-0.103,0.877-0.273c0.398-0.279,0.666-0.742,0.666-1.271C839.012,168.907,838.745,168.442,838.346,168.164z"/>
	<path fill="#FFFFFF" d="M947.481,169.071c0-4.818-3.361-8.849-7.865-9.9v-3.764c0-3.393-2.75-6.147-6.143-6.147H861.44
		c-3.391,0-6.141,2.754-6.141,6.147v4.172c-4.42,1.116-7.693,5.103-7.693,9.857s3.273,8.74,7.693,9.853v11.646
		c0,3.396,2.75,6.151,6.141,6.151h72.033c3.393,0,6.143-2.754,6.143-6.151v-11.967C944.12,177.918,947.481,173.89,947.481,169.071z"
		/>
	<path fill="#00AEC5" d="M856.569,245.886l-1.973-12.004h-0.479v12.004h-5.504v-28.102h6.867c3.527,0,6.461,2.126,6.461,7.951
		c0,3.091-0.84,5.256-2.322,6.583l2.562,13.568H856.569L856.569,245.886z M854.676,222.122h-0.559v7.584h0.479
		c1.326,0,1.729-1.083,1.729-3.771C856.327,223.044,855.965,222.122,854.676,222.122z"/>
	<path fill="#00AEC5" d="M864.155,245.886v-28.102h11.393v4.975h-5.775v5.824h4.418v4.982h-4.418v7.345h6.02v4.977H864.155z"/>
	<path fill="#00AEC5" d="M883.739,246.33c-4.697,0-6.219-3.213-6.621-7.993l5.297-1.001c0.281,3.733,0.605,4.457,1.365,4.457
		c0.879,0,1.162-0.602,1.162-2.492c0-2.689-0.723-3.772-2.967-5.817c-3.658-2.973-4.662-5.422-4.662-8.634
		c0-4.457,2.129-7.508,6.309-7.508c4.256,0,5.98,2.611,6.502,7.265l-5.182,1.046c-0.238-3.29-0.604-3.777-1.32-3.777
		c-0.805,0-1.086,0.568-1.086,2.293c0,1.966,0.557,2.85,2.771,4.775c3.852,3.131,5.02,5.66,5.02,9.876
		C890.327,243.394,887.993,246.33,883.739,246.33z"/>
	<path fill="#00AEC5" d="M898.749,246.33c-4.977,0-7.064-4.015-7.064-14.455c0-10.436,2.17-14.532,7.146-14.532
		c4.982,0,7.109,4.055,7.109,14.453C905.938,242.232,903.768,246.33,898.749,246.33z M898.793,222.122
		c-1.082,0-1.328,1.164-1.328,9.674c0,8.506,0.281,9.754,1.328,9.754c1.078,0,1.365-1.162,1.365-9.675
		S899.872,222.122,898.793,222.122z"/>
	<path fill="#00AEC5" d="M908.104,245.886v-28.102h5.615v23.125h5.021v4.977H908.104z"/>
	<path fill="#00AEC5" d="M928.254,245.886h-5.58l-4.34-28.102h5.5l0.883,8.912c0.365,3.733,0.646,8.751,0.801,11.762
		c0.125-3.01,0.363-8.028,0.689-11.804l0.764-8.87h5.576L928.254,245.886z"/>
	<path fill="#00AEC5" d="M934.997,245.886v-28.102h11.398v4.975h-5.775v5.824h4.408v4.982h-4.408v7.345h6.018v4.977H934.997z"/>
	<path fill="#00575F" d="M948.081,321.873c-1.736,0-3.139-1.406-3.139-3.137c0-1.732,1.402-3.143,3.139-3.143
		c1.73,0,3.137,1.41,3.137,3.143C951.217,320.466,949.813,321.873,948.081,321.873z M948.081,316.876
		c-1.031,0-1.859,0.832-1.859,1.859c0,1.021,0.828,1.857,1.859,1.857c1.02,0,1.854-0.836,1.854-1.857
		C949.934,317.708,949.1,316.876,948.081,316.876z"/>
	<path fill="#00575F" d="M947.266,318.736c0,0.448,0.355,0.812,0.814,0.812c0.447,0,0.811-0.364,0.811-0.812
		c0-0.449-0.361-0.816-0.811-0.816C947.622,317.919,947.266,318.287,947.266,318.736z"/>
	<path fill="#00575F" d="M948.081,207.207c-1.736,0-3.139,1.407-3.139,3.138c0,1.733,1.402,3.143,3.139,3.143
		c1.73,0,3.137-1.41,3.137-3.143C951.217,208.614,949.813,207.207,948.081,207.207z M948.081,212.205
		c-1.031,0-1.859-0.833-1.859-1.86c0-1.023,0.828-1.859,1.859-1.859c1.02,0,1.854,0.835,1.854,1.859
		C949.934,211.372,949.1,212.205,948.081,212.205z"/>
	<path fill="#00575F" d="M947.266,210.345c0,0.449,0.355,0.818,0.814,0.818c0.447,0,0.811-0.369,0.811-0.818
		c0-0.449-0.361-0.813-0.811-0.813C947.622,209.532,947.266,209.896,947.266,210.345z"/>
	<path fill="#00575F" d="M846.487,213.488c-1.732,0-3.139-1.41-3.139-3.143c0-1.731,1.406-3.138,3.139-3.138
		c1.729,0,3.137,1.407,3.137,3.138C849.624,212.078,848.215,213.488,846.487,213.488z M846.487,208.486
		c-1.021,0-1.855,0.835-1.855,1.859c0,1.027,0.834,1.86,1.855,1.86c1.025,0,1.854-0.833,1.854-1.86
		C848.34,209.321,847.512,208.486,846.487,208.486z"/>
	<path fill="#00575F" d="M845.674,210.345c0,0.449,0.363,0.818,0.812,0.818c0.451,0,0.816-0.369,0.816-0.818
		c0-0.449-0.365-0.813-0.816-0.813C846.038,209.532,845.674,209.896,845.674,210.345z"/>
	<path fill="#00575F" d="M846.487,315.593c-1.732,0-3.141,1.41-3.141,3.143c0,1.73,1.408,3.137,3.141,3.137
		c1.729,0,3.137-1.406,3.137-3.137C849.624,317.001,848.215,315.593,846.487,315.593z M846.487,320.593
		c-1.021,0-1.857-0.836-1.857-1.857c0-1.027,0.836-1.859,1.857-1.859c1.025,0,1.854,0.832,1.854,1.859
		C848.34,319.757,847.512,320.593,846.487,320.593z"/>
	<path fill="#00575F" d="M845.674,318.736c0,0.448,0.363,0.812,0.812,0.812c0.451,0,0.816-0.364,0.816-0.812
		c0-0.449-0.365-0.816-0.816-0.816C846.038,317.919,845.674,318.287,845.674,318.736z"/>
	<path fill="#00575F" d="M953.549,215.076c-0.062-0.265-0.24-0.484-0.484-0.594c-0.252-0.107-0.535-0.099-0.77,0.032
		c-0.916,0.51-1.953,0.778-3.002,0.778c-3.422,0-6.199-2.778-6.199-6.198c0-0.798,0.152-1.579,0.449-2.319
		c0.104-0.25,0.082-0.537-0.057-0.765c-0.146-0.229-0.385-0.381-0.652-0.408c-0.396-0.04-0.795-0.058-1.18-0.058h-48.059
		c-0.012-0.001-0.02-0.002-0.031-0.002h-40.299c-0.393,0-0.787,0.013-1.182,0.055c-0.268,0.028-0.502,0.177-0.65,0.407
		c-0.141,0.227-0.158,0.512-0.057,0.764c0.303,0.744,0.453,1.527,0.453,2.321c0,3.42-2.779,6.199-6.199,6.199
		c-1.051,0-2.094-0.267-3.006-0.779c-0.24-0.129-0.521-0.143-0.766-0.032c-0.25,0.11-0.428,0.33-0.486,0.594
		c-0.193,0.873-0.293,1.767-0.293,2.655v38.691v0.074v54.936c0,0.886,0.1,1.777,0.293,2.652c0.057,0.265,0.236,0.482,0.486,0.594
		c0.244,0.113,0.523,0.097,0.768-0.033c0.91-0.512,1.953-0.782,3.004-0.782c3.42,0,6.199,2.782,6.199,6.202
		c0,0.795-0.154,1.572-0.453,2.324c-0.104,0.25-0.084,0.531,0.057,0.76c0.146,0.23,0.383,0.384,0.65,0.409
		c0.379,0.038,0.771,0.058,1.182,0.058h38.135c0.012,0,0.021,0.006,0.031,0.006h50.223c0.377,0,0.773-0.021,1.18-0.06
		c0.268-0.022,0.508-0.175,0.648-0.405c0.143-0.23,0.162-0.512,0.061-0.765c-0.297-0.742-0.449-1.524-0.449-2.322
		c0-3.421,2.777-6.198,6.199-6.198c1.051,0,2.088,0.27,3,0.781c0.234,0.129,0.52,0.145,0.771,0.035
		c0.244-0.113,0.422-0.333,0.484-0.598c0.193-0.875,0.287-1.769,0.287-2.655v-54.94v-0.074v-38.688
		C953.836,216.836,953.743,215.946,953.549,215.076z M842.866,216.495c0.881,0.333,1.816,0.501,2.766,0.501
		c4.357,0,7.912-3.547,7.912-7.907c0-0.622-0.076-1.238-0.219-1.843h33.682l0.018,0.006H941.6c-0.145,0.601-0.215,1.217-0.215,1.842
		c0,4.358,3.549,7.907,7.908,7.907c0.945,0,1.883-0.17,2.764-0.5c0.045,0.407,0.072,0.817,0.072,1.227v30.023H842.786v-30.025
		C842.786,217.315,842.813,216.905,842.866,216.495z M952.129,311.431c0,0.408-0.025,0.82-0.072,1.229
		c-0.881-0.33-1.814-0.5-2.764-0.5c-4.359,0-7.908,3.545-7.908,7.906c0,0.624,0.07,1.24,0.221,1.842h-33.688
		c-0.008,0-0.014-0.006-0.014-0.006h-54.58c0.143-0.604,0.219-1.219,0.219-1.841c0-4.362-3.555-7.91-7.912-7.91
		c-0.949,0-1.885,0.173-2.766,0.503c-0.053-0.41-0.08-0.818-0.08-1.229v-0.543h109.344V311.431z M952.129,308.746H842.786v-38.906
		h109.344V308.746z M952.129,256.492v11.211H842.786v-11.211v-0.074v-6.533h109.344v6.533V256.492z"/>
	<path fill="#00AEC5" d="M848.313,251.937v4.387h6.201v9.213h7.119v-9.213h6.342v-4.387H848.313z M865.428,254.759h-6.34v9.207
		h-2.025v-9.207h-6.209v-1.26h14.574V254.759z"/>
	<path fill="#00AEC5" d="M871.104,251.937v13.6h19.666v-13.6H871.104L871.104,251.937z M888.223,263.966h-14.57V253.5h14.57V263.966
		z"/>
	<path fill="#00AEC5" d="M875.68,254.759v7.951h10.51v-7.951H875.68z M883.651,261.142h-5.428v-4.818h5.428V261.142z"/>
	<path fill="#00AEC5" d="M922.458,265.537h-19.656v-13.6h19.656v5.533l-2.068,1.264l2.068,1.28V265.537z M919.917,263.966v-3.299
		l-3.133-1.934l3.133-1.938V253.5h-14.578v10.467H919.917z M917.879,262.71h-10.502v-7.951h10.502v1.523l-3.959,2.451l3.959,2.451
		V262.71z M914.204,261.142l-3.9-2.408l3.9-2.41h-4.289v4.818H914.204z"/>
	<path fill="#00AEC5" d="M857.413,306.703c-0.42-0.795-0.816-1.547-0.816-2.504v-11.687c0-1.701-0.404-2.722-1.314-3.265
		c0.801-0.551,1.314-1.287,1.314-2.774v-11.101c0-2.119-1.645-3.848-3.66-3.848h-7.117v35.491h3.879V291.3h3.023v12.898
		c0,0.973,0.414,2.006,0.768,2.696l0.061,0.12h4.025L857.413,306.703z M852.721,287.24h-3.023v-11.652h3.023V287.24z"/>
	<path fill="#00AEC5" d="M870.405,307.016h-7.111c-2.029,0-3.666-1.729-3.666-3.853v-27.791c0-2.121,1.637-3.849,3.666-3.849h7.111
		v4.063h-6.9v11.65h5.174v4.062h-5.174v11.652h6.9V307.016z"/>
	<path fill="#00AEC5" d="M883.374,307.016h-10.781v-35.491h3.881v31.43h3.021v-7.267h3.879V307.016z"/>
	<path fill="#00AEC5" d="M896.342,307.016h-7.113c-2.021,0-3.666-1.729-3.666-3.853v-27.791c0-2.121,1.645-3.849,3.666-3.849h7.113
		v4.063h-6.898v11.65h5.176v4.062h-5.176v11.652h6.898V307.016z"/>
	<path fill="#00AEC5" d="M905.325,307.016h-3.645l-4.064-35.491h3.938l1.641,18.413c0.104,1.16,0.217,2.405,0.307,4.067
		c0.096-1.66,0.209-2.906,0.312-4.062l0.082-0.986l1.561-17.432h3.938L905.325,307.016z"/>
	<path fill="#00AEC5" d="M922.282,307.016h-3.877V291.3h-3.029v15.716H911.5v-30.12c0-3.125,2.42-5.665,5.391-5.665
		c2.973,0,5.393,2.541,5.393,5.665v30.12H922.282z M915.375,287.24h3.029v-11.652h-3.029V287.24z"/>
	<path fill="#00AEC5" d="M936.092,307.016h-3.658l-0.031-0.181c-0.49-2.976-1.082-6-1.656-8.926
		c-0.637-3.226-1.285-6.529-1.826-9.918c0.143,3.016,0.268,6.561,0.268,8.645v10.38h-3.883v-35.491h3.664l0.033,0.18
		c0.484,2.979,1.082,6.002,1.656,8.928c0.635,3.221,1.283,6.529,1.826,9.914c-0.146-3.016-0.271-6.557-0.271-8.641v-10.381h3.879
		V307.016z"/>
	<path fill="#00AEC5" d="M945.141,307.016h-3.881v-31.429h-3.451v-4.062h10.787v4.062h-3.455V307.016z"/>
	<path fill="#00AEC5" d="M945.252,256.251v-4.315h-19.658v1.354v2.959v0.545v3.756v0.746v2.966v1.272h19.658v-4.238h-13.541v-0.746
		h7.578v-3.756h-7.578v-0.545h13.541V256.251z M937.235,257.994v1.279h-7.064v3.568h13.012v1.125H930.17h-2.201v-1.125v-3.701
		v-1.146v-3.369V253.5h2.201h13.012v1.125H930.17v3.369H937.235z"/>
	<path fill="#00575F" d="M939.78,315.466c0.625-0.745,0.52-1.858-0.232-2.48c-0.752-0.624-1.863-0.517-2.486,0.23
		c-0.617,0.75-0.521,1.863,0.234,2.484C938.047,316.326,939.155,316.218,939.78,315.466z"/>
	<path fill="#00575F" d="M934.938,315.466c0.615-0.745,0.514-1.858-0.234-2.48c-0.754-0.624-1.867-0.517-2.482,0.23
		c-0.625,0.75-0.52,1.863,0.232,2.484C933.2,316.326,934.313,316.218,934.938,315.466z"/>
	<path fill="#00575F" d="M930.092,315.466c0.619-0.745,0.52-1.858-0.234-2.48c-0.748-0.624-1.861-0.517-2.482,0.23
		c-0.623,0.75-0.514,1.863,0.232,2.484C928.358,316.326,929.467,316.218,930.092,315.466z"/>
	<path fill="#00575F" d="M925.249,315.466c0.617-0.745,0.516-1.858-0.238-2.48c-0.748-0.624-1.854-0.517-2.479,0.23
		c-0.621,0.75-0.521,1.863,0.23,2.484C923.512,316.326,924.622,316.218,925.249,315.466z"/>
	<path fill="#00575F" d="M920.399,315.466c0.623-0.745,0.518-1.858-0.23-2.48c-0.75-0.624-1.859-0.517-2.484,0.23
		c-0.619,0.75-0.512,1.863,0.232,2.484C918.668,316.326,919.78,316.218,920.399,315.466z"/>
	<path fill="#00575F" d="M915.553,315.466c0.629-0.745,0.521-1.858-0.229-2.48c-0.746-0.624-1.865-0.517-2.484,0.23
		c-0.621,0.75-0.52,1.863,0.236,2.484C913.827,316.326,914.932,316.218,915.553,315.466z"/>
	<path fill="#00575F" d="M910.711,315.466c0.627-0.745,0.521-1.858-0.229-2.48c-0.748-0.624-1.865-0.517-2.484,0.23
		c-0.619,0.75-0.52,1.863,0.229,2.484C908.981,316.326,910.092,316.218,910.711,315.466z"/>
	<path fill="#00575F" d="M858.184,211.936c0.629-0.748,0.521-1.856-0.229-2.482c-0.75-0.618-1.863-0.518-2.479,0.233
		c-0.629,0.753-0.525,1.861,0.23,2.485C856.456,212.791,857.569,212.689,858.184,211.936z"/>
	<path fill="#00575F" d="M862.979,211.936c0.621-0.748,0.518-1.856-0.234-2.482c-0.744-0.618-1.863-0.518-2.48,0.233
		c-0.629,0.753-0.52,1.861,0.23,2.485C861.249,212.791,862.356,212.689,862.979,211.936z"/>
	<path fill="#00575F" d="M867.764,211.936c0.627-0.748,0.521-1.856-0.234-2.482c-0.744-0.618-1.855-0.518-2.48,0.233
		c-0.615,0.753-0.518,1.861,0.238,2.485C866.034,212.791,867.147,212.689,867.764,211.936z"/>
	<path fill="#00575F" d="M872.555,211.936c0.621-0.748,0.521-1.856-0.23-2.482c-0.752-0.618-1.855-0.518-2.482,0.233
		c-0.625,0.753-0.52,1.861,0.232,2.485C870.823,212.791,871.938,212.689,872.555,211.936z"/>
	<path fill="#00575F" d="M877.342,211.936c0.623-0.748,0.521-1.856-0.225-2.482c-0.754-0.618-1.867-0.518-2.49,0.233
		c-0.619,0.753-0.52,1.861,0.232,2.485C875.614,212.791,876.723,212.689,877.342,211.936z"/>
	<path fill="#00575F" d="M882.135,211.936c0.619-0.748,0.52-1.856-0.232-2.482c-0.748-0.618-1.861-0.518-2.48,0.233
		c-0.627,0.753-0.52,1.861,0.229,2.485C880.405,212.791,881.51,212.689,882.135,211.936z"/>
	<path fill="#00575F" d="M886.92,211.936c0.621-0.748,0.52-1.856-0.229-2.482c-0.754-0.618-1.865-0.518-2.482,0.233
		c-0.621,0.753-0.523,1.861,0.23,2.485C885.19,212.791,886.303,212.689,886.92,211.936z"/>
	<path fill="#00575F" d="M891.709,211.936c0.623-0.748,0.523-1.856-0.229-2.482c-0.746-0.618-1.861-0.518-2.486,0.233
		c-0.619,0.753-0.516,1.861,0.236,2.485C889.979,212.791,891.094,212.689,891.709,211.936z"/>
	<path fill="#00575F" d="M896.5,211.936c0.621-0.748,0.521-1.856-0.227-2.482c-0.752-0.618-1.863-0.518-2.486,0.233
		c-0.625,0.753-0.518,1.861,0.23,2.485C894.768,212.791,895.879,212.689,896.5,211.936z"/>
	<path fill="#00575F" d="M901.29,211.936c0.623-0.748,0.521-1.856-0.23-2.482c-0.752-0.618-1.861-0.518-2.48,0.233
		c-0.623,0.753-0.52,1.861,0.227,2.485C899.563,212.791,900.672,212.689,901.29,211.936z"/>
	<path fill="#00575F" d="M906.083,211.936c0.619-0.748,0.518-1.856-0.234-2.482c-0.75-0.618-1.859-0.518-2.486,0.233
		c-0.615,0.753-0.514,1.861,0.232,2.485C904.344,212.791,905.461,212.689,906.083,211.936z"/>
	<path fill="#00575F" d="M910.868,211.936c0.625-0.748,0.518-1.856-0.23-2.482c-0.752-0.618-1.861-0.518-2.479,0.233
		c-0.627,0.753-0.521,1.861,0.229,2.485C909.141,212.791,910.252,212.689,910.868,211.936z"/>
	<path fill="#00575F" d="M915.661,211.936c0.621-0.748,0.52-1.856-0.234-2.482c-0.75-0.618-1.861-0.518-2.48,0.233
		c-0.625,0.753-0.521,1.861,0.23,2.485C913.926,212.791,915.042,212.689,915.661,211.936z"/>
	<path fill="#00575F" d="M920.45,211.936c0.621-0.748,0.518-1.856-0.234-2.482c-0.75-0.618-1.861-0.518-2.48,0.233
		c-0.621,0.753-0.521,1.861,0.229,2.485C918.711,212.791,919.821,212.689,920.45,211.936z"/>
	<path fill="#00575F" d="M925.237,211.936c0.623-0.748,0.514-1.856-0.234-2.482c-0.75-0.618-1.859-0.518-2.486,0.233
		c-0.615,0.753-0.514,1.861,0.238,2.485C923.502,212.791,924.618,212.689,925.237,211.936z"/>
	<path fill="#00575F" d="M930.024,211.936c0.627-0.748,0.521-1.856-0.227-2.482c-0.756-0.618-1.861-0.518-2.486,0.233
		c-0.623,0.753-0.523,1.861,0.236,2.485C928.29,212.791,929.405,212.689,930.024,211.936z"/>
	<path fill="#00575F" d="M934.819,211.936c0.621-0.748,0.52-1.856-0.23-2.482c-0.756-0.618-1.869-0.518-2.49,0.233
		c-0.619,0.753-0.516,1.861,0.236,2.485C933.077,212.791,934.192,212.689,934.819,211.936z"/>
	<path fill="#00575F" d="M939.606,211.936c0.625-0.748,0.521-1.856-0.232-2.482c-0.754-0.618-1.861-0.518-2.486,0.233
		c-0.623,0.753-0.514,1.861,0.234,2.485C937.875,212.791,938.983,212.689,939.606,211.936z"/>
	<path fill="#00575F" d="M905.87,315.466c0.623-0.745,0.514-1.858-0.232-2.48c-0.752-0.624-1.859-0.517-2.482,0.23
		c-0.621,0.75-0.521,1.863,0.23,2.484C904.135,316.326,905.245,316.218,905.87,315.466z"/>
	<path fill="#00575F" d="M901.026,315.466c0.623-0.745,0.521-1.858-0.234-2.48c-0.744-0.624-1.863-0.517-2.48,0.23
		c-0.619,0.75-0.52,1.863,0.229,2.484C899.293,316.326,900.403,316.218,901.026,315.466z"/>
	<path fill="#00575F" d="M896.182,315.466c0.625-0.745,0.518-1.858-0.232-2.48c-0.748-0.624-1.865-0.517-2.48,0.23
		c-0.625,0.75-0.52,1.863,0.227,2.484C894.45,316.326,895.563,316.218,896.182,315.466z"/>
	<path fill="#00575F" d="M891.334,315.466c0.623-0.745,0.523-1.858-0.225-2.48c-0.752-0.624-1.867-0.517-2.492,0.23
		c-0.615,0.75-0.518,1.863,0.238,2.484C889.604,316.326,890.715,316.218,891.334,315.466z"/>
	<path fill="#00575F" d="M886.499,315.466c0.621-0.745,0.512-1.858-0.232-2.48c-0.754-0.624-1.865-0.517-2.484,0.23
		c-0.625,0.75-0.523,1.863,0.229,2.484C884.764,316.326,885.874,316.218,886.499,315.466z"/>
	<path fill="#00575F" d="M881.651,315.466c0.619-0.745,0.52-1.858-0.236-2.48c-0.744-0.624-1.857-0.517-2.477,0.23
		c-0.629,0.75-0.52,1.863,0.229,2.484C879.917,316.326,881.03,316.218,881.651,315.466z"/>
	<path fill="#00575F" d="M876.813,315.466c0.613-0.745,0.51-1.858-0.238-2.48c-0.748-0.624-1.861-0.517-2.48,0.23
		c-0.623,0.75-0.521,1.863,0.238,2.484C875.075,316.326,876.184,316.218,876.813,315.466z"/>
	<path fill="#00575F" d="M871.965,315.466c0.623-0.745,0.516-1.858-0.232-2.48c-0.75-0.624-1.859-0.517-2.486,0.23
		c-0.623,0.75-0.516,1.863,0.229,2.484C870.225,316.326,871.342,316.218,871.965,315.466z"/>
	<path fill="#00575F" d="M867.118,315.466c0.629-0.745,0.516-1.858-0.229-2.48c-0.754-0.624-1.861-0.517-2.49,0.23
		c-0.621,0.75-0.518,1.863,0.236,2.484C865.387,316.326,866.499,316.218,867.118,315.466z"/>
	<path fill="#00575F" d="M862.276,315.466c0.625-0.745,0.52-1.858-0.234-2.48c-0.752-0.624-1.861-0.517-2.49,0.23
		c-0.613,0.75-0.512,1.863,0.234,2.484C860.542,316.326,861.653,316.218,862.276,315.466z"/>
	<path fill="#00575F" d="M857.43,315.466c0.623-0.745,0.521-1.858-0.229-2.48c-0.75-0.624-1.867-0.517-2.484,0.23
		c-0.625,0.75-0.52,1.863,0.232,2.484C855.7,316.326,856.807,316.218,857.43,315.466z"/>
	<path fill="#00575F" d="M937.356,319.817c0.623-0.751,0.52-1.864-0.234-2.487c-0.744-0.621-1.854-0.518-2.479,0.234
		c-0.627,0.753-0.521,1.861,0.234,2.482C935.624,320.673,936.737,320.564,937.356,319.817z"/>
	<path fill="#00575F" d="M932.514,319.817c0.619-0.751,0.52-1.864-0.229-2.487c-0.758-0.621-1.867-0.518-2.486,0.234
		c-0.629,0.753-0.521,1.861,0.229,2.482C930.774,320.673,931.885,320.564,932.514,319.817z"/>
	<path fill="#00575F" d="M927.67,319.817c0.613-0.751,0.518-1.864-0.238-2.487c-0.748-0.621-1.857-0.518-2.48,0.234
		c-0.619,0.753-0.518,1.861,0.229,2.482C925.938,320.673,927.045,320.564,927.67,319.817z"/>
	<path fill="#00575F" d="M922.825,319.817c0.617-0.751,0.516-1.864-0.229-2.487c-0.758-0.621-1.865-0.518-2.488,0.234
		c-0.621,0.753-0.52,1.861,0.234,2.482C921.092,320.673,922.198,320.564,922.825,319.817z"/>
	<path fill="#00575F" d="M917.981,319.817c0.621-0.751,0.518-1.864-0.232-2.487c-0.75-0.621-1.867-0.518-2.482,0.234
		c-0.631,0.753-0.52,1.861,0.23,2.482C916.247,320.673,917.356,320.564,917.981,319.817z"/>
	<path fill="#00575F" d="M913.137,319.817c0.621-0.751,0.523-1.864-0.229-2.487c-0.754-0.621-1.865-0.518-2.486,0.234
		c-0.619,0.753-0.521,1.861,0.232,2.482C911.405,320.673,912.512,320.564,913.137,319.817z"/>
	<path fill="#00575F" d="M908.295,319.817c0.619-0.751,0.514-1.864-0.232-2.487c-0.75-0.621-1.861-0.518-2.486,0.234
		c-0.625,0.753-0.516,1.861,0.236,2.482C906.559,320.673,907.67,320.564,908.295,319.817z"/>
	<path fill="#00575F" d="M903.45,319.817c0.625-0.751,0.518-1.864-0.23-2.487c-0.75-0.621-1.869-0.518-2.484,0.234
		c-0.625,0.753-0.52,1.861,0.232,2.482C901.715,320.673,902.827,320.564,903.45,319.817z"/>
	<path fill="#00575F" d="M898.6,319.817c0.625-0.751,0.52-1.864-0.23-2.487c-0.748-0.621-1.863-0.518-2.48,0.234
		c-0.627,0.753-0.52,1.861,0.232,2.482C896.87,320.673,897.983,320.564,898.6,319.817z"/>
	<path fill="#00575F" d="M893.764,319.817c0.625-0.751,0.521-1.864-0.236-2.487c-0.748-0.621-1.867-0.518-2.48,0.234
		c-0.621,0.753-0.52,1.861,0.232,2.482C892.028,320.673,893.137,320.564,893.764,319.817z"/>
	<path fill="#00575F" d="M888.917,319.817c0.617-0.751,0.514-1.864-0.232-2.487c-0.75-0.621-1.861-0.518-2.484,0.234
		c-0.623,0.753-0.521,1.861,0.232,2.482C887.178,320.673,888.297,320.564,888.917,319.817z"/>
	<path fill="#00575F" d="M884.071,319.817c0.625-0.751,0.516-1.864-0.232-2.487c-0.746-0.621-1.857-0.518-2.48,0.234
		c-0.625,0.753-0.52,1.861,0.232,2.482C882.336,320.673,883.45,320.564,884.071,319.817z"/>
	<path fill="#00575F" d="M879.231,319.817c0.619-0.751,0.514-1.864-0.236-2.487c-0.752-0.621-1.865-0.518-2.484,0.234
		c-0.621,0.753-0.52,1.861,0.234,2.482C877.493,320.673,878.608,320.564,879.231,319.817z"/>
	<path fill="#00575F" d="M874.385,319.817c0.617-0.751,0.516-1.864-0.23-2.487c-0.754-0.621-1.863-0.518-2.484,0.234
		c-0.621,0.753-0.52,1.861,0.23,2.482C872.653,320.673,873.764,320.564,874.385,319.817z"/>
	<path fill="#00575F" d="M869.538,319.817c0.623-0.751,0.521-1.864-0.229-2.487c-0.752-0.621-1.863-0.518-2.482,0.234
		c-0.625,0.753-0.521,1.861,0.229,2.482C867.801,320.673,868.92,320.564,869.538,319.817z"/>
	<path fill="#00575F" d="M864.696,319.817c0.623-0.751,0.521-1.864-0.232-2.487c-0.75-0.621-1.863-0.518-2.482,0.234
		c-0.615,0.753-0.52,1.861,0.23,2.482C862.963,320.673,864.075,320.564,864.696,319.817z"/>
	<path fill="#00575F" d="M859.854,319.817c0.621-0.751,0.518-1.864-0.234-2.487c-0.746-0.621-1.861-0.518-2.484,0.234
		c-0.621,0.753-0.521,1.861,0.23,2.482C858.122,320.673,859.229,320.564,859.854,319.817z"/>
	<path fill="#00575F" d="M957.438,165.295c-1.887,0-3.488,1.247-4.035,2.962h-4.842c-0.438-4.133-3.123-7.592-6.812-9.144v-3.689
		c0-4.57-3.713-8.287-8.281-8.287h-12.062c-4.842-6.227-12.074-10.516-20.309-11.462l-1.004-15.507
		c1.615-0.926,2.713-2.667,2.713-4.669c0-2.971-2.412-5.38-5.383-5.38c-2.973,0-5.381,2.41-5.381,5.38
		c0,2.041,1.135,3.812,2.803,4.728l-0.836,15.468c-8.166,0.988-15.33,5.258-20.145,11.443h-12.426c-4.562,0-8.277,3.717-8.277,8.287
		v3.786c-3.629,1.532-6.289,4.908-6.787,8.954h-4.867c-0.539-1.717-2.141-2.966-4.037-2.966c-2.336,0-4.232,1.903-4.232,4.239
		c0,2.335,1.896,4.231,4.232,4.231c1.896,0,3.498-1.246,4.037-2.96h4.846c0.43,4.13,3.127,7.588,6.811,9.145v11.096
		c0,4.568,3.715,8.285,8.277,8.285h72.027c4.568,0,8.281-3.716,8.281-8.285v-11.195c3.631-1.53,6.291-4.904,6.783-8.952h4.869
		c0.547,1.717,2.15,2.962,4.035,2.962c2.34,0,4.24-1.897,4.24-4.233C961.678,167.192,959.776,165.295,957.438,165.295z
		 M839.639,170.708c-0.439,0.746-1.24,1.254-2.17,1.254c-0.932,0-1.729-0.509-2.172-1.254c-0.219-0.374-0.357-0.806-0.357-1.271
		c0-0.467,0.141-0.898,0.354-1.273c0.447-0.75,1.246-1.253,2.178-1.253c0.93,0,1.729,0.503,2.17,1.253
		c0.215,0.375,0.355,0.806,0.355,1.273C839.995,169.902,839.854,170.334,839.639,170.708z M853.161,173.398
		c-0.924-1.023-1.484-2.378-1.484-3.862c0-1.486,0.562-2.833,1.484-3.865V173.398z M853.161,163.394
		c-1.934,1.366-3.193,3.608-3.193,6.142c0,2.536,1.262,4.776,3.193,6.14v2.293c-0.168-0.087-0.33-0.183-0.492-0.276
		c-0.053-0.029-0.104-0.062-0.156-0.093c-0.477-0.298-0.926-0.634-1.344-1.005c-0.057-0.052-0.121-0.104-0.178-0.164
		c-0.123-0.113-0.24-0.227-0.355-0.345c-0.061-0.074-0.137-0.147-0.197-0.218c-0.164-0.184-0.32-0.374-0.473-0.572
		c-0.078-0.102-0.158-0.205-0.234-0.312c-0.08-0.107-0.146-0.216-0.223-0.326c-0.08-0.129-0.16-0.263-0.242-0.399
		c-0.051-0.094-0.105-0.181-0.158-0.272c-0.119-0.218-0.221-0.443-0.314-0.67c-0.047-0.087-0.082-0.177-0.113-0.265
		c-0.072-0.179-0.133-0.359-0.201-0.542c-0.027-0.083-0.055-0.163-0.072-0.246c-0.086-0.253-0.152-0.517-0.211-0.778
		c-0.004-0.061-0.016-0.121-0.023-0.179c-0.045-0.22-0.08-0.45-0.109-0.675c-0.01-0.079-0.018-0.161-0.023-0.239
		c-0.027-0.282-0.043-0.574-0.043-0.863c0-0.293,0.016-0.578,0.043-0.863c0.006-0.081,0.014-0.16,0.023-0.241
		c0.029-0.229,0.064-0.454,0.109-0.679c0.01-0.056,0.02-0.121,0.023-0.174c0.059-0.264,0.125-0.528,0.211-0.785
		c0.02-0.076,0.045-0.16,0.072-0.239c0.068-0.181,0.129-0.362,0.201-0.542c0.031-0.088,0.066-0.179,0.113-0.267
		c0.094-0.225,0.195-0.453,0.314-0.669c0.053-0.093,0.107-0.184,0.158-0.272c0.082-0.135,0.162-0.27,0.242-0.399
		c0.076-0.11,0.143-0.22,0.223-0.325c0.076-0.106,0.156-0.21,0.234-0.312c0.152-0.202,0.309-0.392,0.48-0.573
		c0.059-0.073,0.129-0.146,0.189-0.216c0.113-0.12,0.23-0.235,0.354-0.348c0.059-0.055,0.123-0.11,0.18-0.161
		c0.418-0.373,0.867-0.711,1.344-1.005c0.051-0.031,0.104-0.063,0.156-0.093c0.158-0.098,0.324-0.188,0.492-0.276V163.394
		L853.161,163.394z M918.637,147.137h-5.02c-2.273-3.426-5.203-6.317-8.633-8.541C910.346,140.061,915.069,143.079,918.637,147.137z
		 M911.012,147.137h-3.418c-1.041-2.49-2.412-4.826-4.098-6.958C906.417,142.02,908.959,144.366,911.012,147.137z M891.768,149.274
		l5.67,17.101l5.93-17.101h2.525l-8.42,23.706l-8.043-23.706H891.768z M901.557,149.274l-4.084,11.78l-3.902-11.78H901.557z
		 M905.264,147.137h-2.93c-0.318-2.448-0.943-4.884-1.889-7.247C902.438,142.055,904.063,144.498,905.264,147.137z M900.178,147.137
		h-5.096c0.404-2.858,1.26-5.657,2.553-8.307C898.942,141.513,899.78,144.312,900.178,147.137z M897.422,113.354
		c1.184,0,2.145,0.958,2.145,2.14c0,1.183-0.961,2.142-2.145,2.142c-1.18,0-2.146-0.958-2.146-2.142
		C895.276,114.313,896.243,113.354,897.422,113.354z M894.823,139.896c-0.938,2.342-1.576,4.774-1.898,7.242h-2.916
		C891.213,144.498,892.834,142.061,894.823,139.896z M887.678,147.137h-3.418c2.055-2.771,4.598-5.118,7.52-6.958
		C890.094,142.311,888.717,144.647,887.678,147.137z M890.288,138.598c-3.432,2.222-6.363,5.113-8.637,8.539h-5.014
		C880.206,143.079,884.924,140.061,890.288,138.598z M939.616,190.948c0,3.396-2.75,6.153-6.148,6.153H861.44
		c-3.391,0-6.145-2.757-6.145-6.153v-2.699h9.418v5.553h5.232h1.711h3.525h1.713h3.521h1.707h3.527h1.707h3.523h1.707h3.529h1.705
		h3.523h1.713h3.521h1.711h3.516h1.717h3.523h1.713h3.52h1.709h5.229v-5.553h10.396v2.699H939.616z M866.42,192.094v-3.845h3.525
		v3.845H866.42z M871.657,192.094v-3.845h3.525v3.845H871.657z M876.895,192.094v-3.845h3.521v3.845H876.895z M882.125,192.094
		v-3.845h3.525v3.845H882.125z M887.358,192.094v-3.845h3.525v3.845H887.358z M892.59,192.094v-3.845h3.529v3.845H892.59z
		 M897.825,192.094v-3.845h3.523v3.845H897.825z M903.063,192.094v-3.845h3.521v3.845H903.063z M908.295,192.094v-3.845h3.516v3.845
		H908.295z M913.526,192.094v-3.845h3.523v3.845H913.526z M918.762,192.094v-3.845h3.521v3.845H918.762z M923.991,192.094v-3.845
		h3.525v3.845H923.991z M939.616,158.456v1.752v2.028v1.815v10.759v1.813v2.038v1.753v5.704h-84.32v-5.607v-1.755v-2.025v-1.811
		v-10.765v-1.811v-2.039v-1.752v-3.128c0-3.399,2.754-6.15,6.145-6.15h25.734l10.256,30.213l10.73-30.213h25.307
		c3.398,0,6.148,2.751,6.148,6.15V158.456z M941.749,165.565c0.92,1.027,1.484,2.379,1.484,3.864c0,1.487-0.564,2.835-1.484,3.862
		V165.565z M941.749,177.872v-2.301c1.932-1.365,3.195-3.609,3.195-6.142c0-2.538-1.264-4.777-3.195-6.144v-2.289
		c3.064,1.576,5.166,4.766,5.166,8.44C946.915,173.111,944.813,176.295,941.749,177.872z M959.612,170.801
		c-0.439,0.751-1.244,1.257-2.176,1.257c-0.926,0-1.723-0.506-2.168-1.257c-0.219-0.374-0.352-0.803-0.352-1.271
		c0-0.465,0.133-0.897,0.352-1.273c0.445-0.749,1.242-1.255,2.168-1.255c0.932,0,1.736,0.506,2.176,1.255
		c0.227,0.376,0.355,0.808,0.355,1.273C959.967,169.998,959.838,170.427,959.612,170.801z"/>
	<path fill="#FFFFFF" d="M880.934,169.165c0-4.02-3.26-7.275-7.275-7.275c-4.023,0-7.279,3.255-7.279,7.275
		c0,4.021,3.256,7.274,7.279,7.274C877.674,176.438,880.934,173.185,880.934,169.165z"/>
	<path fill="#00575F" d="M873.657,165.858c-0.428,0-0.834,0.087-1.207,0.234l1.08,2.952l-2.789-1.411
		c-0.24,0.46-0.391,0.974-0.391,1.531c0,1.825,1.48,3.305,3.307,3.305c1.828,0,3.305-1.479,3.305-3.305
		C876.961,167.338,875.485,165.858,873.657,165.858z"/>
	<path fill="#00575F" d="M894.03,179.211c0-0.963-0.779-1.745-1.75-1.745c-0.959,0-1.742,0.782-1.742,1.745
		c0,0.968,0.783,1.747,1.742,1.747C893.25,180.958,894.03,180.179,894.03,179.211z"/>
	<path fill="#00575F" d="M904.135,179.211c0-0.963-0.777-1.745-1.738-1.745c-0.969,0-1.752,0.782-1.752,1.745
		c0,0.968,0.783,1.747,1.752,1.747C903.356,180.958,904.135,180.179,904.135,179.211z"/>
	<path fill="#00575F" d="M873.333,155.724c-9.395,0-17.035,6.03-17.035,13.44c0,7.408,7.643,13.439,17.035,13.439
		c9.389,0,17.029-6.031,17.029-13.439C890.362,161.754,882.721,155.724,873.333,155.724z M873.333,157.858
		c5.906,0,11.012,2.631,13.418,6.425c-0.861-0.467-1.902-0.881-3.109-1.234c-0.154-0.048-0.316-0.09-0.479-0.133
		c-0.135-0.04-0.275-0.072-0.414-0.106c-0.359-0.091-0.729-0.177-1.105-0.255c-0.035-0.009-0.078-0.018-0.123-0.026
		c-0.371-0.078-0.754-0.149-1.141-0.214c-0.131-0.024-0.26-0.047-0.395-0.066c-0.209-0.036-0.42-0.065-0.635-0.096
		c-0.4-0.056-0.809-0.11-1.225-0.155c-0.008-0.002-0.016-0.002-0.023-0.005c-0.018-0.002-0.029-0.002-0.051-0.002
		c-1.48-0.157-3.057-0.245-4.691-0.245c-1.391,0-2.729,0.075-4.02,0.192c-0.23,0.021-0.482,0.032-0.711,0.055
		c-0.014,0.003-0.021,0.003-0.037,0.005c-0.412,0.045-0.814,0.099-1.215,0.155c-0.213,0.03-0.43,0.06-0.637,0.096
		c-0.137,0.02-0.262,0.042-0.395,0.066c-0.385,0.065-0.771,0.136-1.141,0.214c-0.045,0.008-0.086,0.017-0.125,0.026
		c-0.373,0.079-0.742,0.165-1.104,0.255c-0.137,0.034-0.281,0.068-0.416,0.109c-0.16,0.041-0.322,0.083-0.477,0.131
		c-1.248,0.365-2.328,0.8-3.207,1.289C862.272,160.514,867.391,157.858,873.333,157.858z M869.918,163.577
		c1.1-0.086,2.242-0.135,3.441-0.135c1.453,0,2.82,0.073,4.113,0.198c1.748,1.213,2.904,3.235,2.904,5.525
		c0,3.706-3.02,6.721-6.721,6.721c-3.711,0-6.727-3.015-6.727-6.721C866.932,166.837,868.125,164.783,869.918,163.577z
		 M873.333,180.468c-8.221,0-14.906-5.07-14.906-11.304c0-0.633,0.09-1.247,0.223-1.852c1.023-1.39,4.086-2.724,8.43-3.404
		c-1.154,1.441-1.854,3.269-1.854,5.256c0,4.647,3.783,8.43,8.434,8.43c4.645,0,8.43-3.782,8.43-8.43
		c0-1.935-0.664-3.714-1.766-5.14c3.877,0.688,6.623,1.905,7.668,3.181c0.15,0.638,0.24,1.291,0.24,1.959
		C888.229,175.398,881.547,180.468,873.333,180.468z"/>
	<path fill="#FFFFFF" d="M928.909,169.165c0-4.02-3.26-7.275-7.275-7.275c-4.02,0-7.275,3.255-7.275,7.275
		c0,4.021,3.256,7.274,7.275,7.274C925.649,176.438,928.909,173.185,928.909,169.165z"/>
	<path fill="#00575F" d="M921.633,165.858c-0.432,0-0.828,0.087-1.203,0.234l1.078,2.952l-2.793-1.411
		c-0.238,0.46-0.391,0.974-0.391,1.531c0,1.825,1.484,3.305,3.309,3.305c1.826,0,3.311-1.479,3.311-3.305
		C924.942,167.338,923.458,165.858,921.633,165.858z"/>
	<path fill="#00575F" d="M921.307,155.724c-9.391,0-17.035,6.03-17.035,13.44c0,7.408,7.645,13.439,17.035,13.439
		c9.396,0,17.033-6.031,17.033-13.439C938.34,161.754,930.702,155.724,921.307,155.724z M921.307,157.858
		c5.914,0,11.016,2.631,13.418,6.425c-0.857-0.467-1.9-0.881-3.104-1.234c-0.156-0.048-0.32-0.09-0.486-0.133
		c-0.135-0.04-0.271-0.072-0.408-0.106c-0.361-0.091-0.73-0.177-1.107-0.255c-0.037-0.009-0.08-0.018-0.117-0.026
		c-0.377-0.078-0.756-0.149-1.141-0.214c-0.133-0.024-0.266-0.047-0.398-0.066c-0.209-0.036-0.424-0.065-0.633-0.096
		c-0.404-0.056-0.811-0.11-1.221-0.155c-0.01-0.002-0.023-0.002-0.031-0.005c-0.016-0.002-0.031-0.002-0.049-0.002
		c-1.479-0.157-3.055-0.245-4.688-0.245c-1.396,0-2.732,0.075-4.023,0.192c-0.236,0.021-0.482,0.032-0.711,0.055
		c-0.014,0.003-0.023,0.003-0.033,0.005c-0.418,0.045-0.82,0.099-1.219,0.155c-0.211,0.03-0.43,0.06-0.635,0.096
		c-0.133,0.02-0.266,0.042-0.395,0.066c-0.389,0.065-0.771,0.136-1.146,0.214c-0.037,0.008-0.08,0.017-0.121,0.026
		c-0.377,0.079-0.74,0.165-1.104,0.255c-0.143,0.034-0.273,0.068-0.41,0.109c-0.16,0.041-0.324,0.083-0.484,0.131
		c-1.246,0.365-2.33,0.8-3.207,1.289C910.247,160.514,915.368,157.858,921.307,157.858z M917.901,163.577
		c1.092-0.086,2.24-0.135,3.439-0.135c1.447,0,2.816,0.073,4.109,0.198c1.75,1.213,2.906,3.235,2.906,5.525
		c0,3.706-3.021,6.721-6.725,6.721c-3.711,0-6.723-3.015-6.723-6.721C914.911,166.837,916.1,164.783,917.901,163.577z
		 M921.307,180.468c-8.215,0-14.898-5.07-14.898-11.304c0-0.633,0.086-1.247,0.215-1.852c1.031-1.39,4.088-2.724,8.428-3.404
		c-1.156,1.441-1.848,3.269-1.848,5.256c0,4.647,3.783,8.43,8.432,8.43c4.645,0,8.428-3.782,8.428-8.43
		c0-1.935-0.662-3.714-1.762-5.14c3.873,0.688,6.621,1.905,7.666,3.181c0.152,0.638,0.24,1.291,0.24,1.959
		C936.206,175.398,929.522,180.468,921.307,180.468z"/>
</g>
<rect x="886.184" y="198.712" fill="#00575F" width="22.463" height="4.13"/>
<path fill="#FFFFFF" d="M828.208,171.57c-2.707-6.87-3.734-12.571-3.994-16.951c21.955-9.432,36.307-24.976,36.307-42.569
	c0-28.771-38.342-52.093-85.643-52.093c-47.303,0-85.645,23.322-85.645,52.093s38.344,52.093,85.645,52.093
	c5.834,0,11.529-0.358,17.035-1.034c2.479,4.752,5.979,9.561,10.883,13.141c21.203,15.473,46.156,14.037,46.156,14.037
	S834.122,186.584,828.208,171.57z"/>
<path fill="#807774" d="M714.952,87.298h20.529v7.523h-5.891v-3.03h-5.445v4.698h6.467v4.527h-6.467v5.549h5.445V103.4h5.891v7.693
	h-20.529v-4.528h2.146V91.792h-2.146V87.298z"/>
<path fill="#807774" d="M736.846,87.298h11.064c7.896,0,9.43,3.132,9.43,7.013c0,2.655-2.109,4.527-4.938,4.936
	c2.35,0.34,4.461,2.383,4.461,4.834c0,1.464,0.203,2.315,0.814,2.315c0.512,0,0.783-0.409,0.783-1.089v-1.124h2.281v1.873
	c0,2.825-1.191,5.447-4.971,5.447c-4.459,0-6.604-2.349-6.604-6.332c0-3.098-0.375-3.847-3.404-3.847v5.276h2.076v4.494h-10.996
	V106.6h1.906V91.758h-1.906v-4.46H736.846z M745.766,91.724v5.787h1.531c1.975,0,3.27-0.953,3.27-2.757c0-2.008-1.125-3.03-3.1-3.03
	H745.766z"/>
<path fill="#807774" d="M761.6,87.298h11.064c7.896,0,9.43,3.132,9.43,7.013c0,2.655-2.109,4.527-4.938,4.936
	c2.35,0.34,4.461,2.383,4.461,4.834c0,1.464,0.203,2.315,0.814,2.315c0.512,0,0.783-0.409,0.783-1.089v-1.124h2.281v1.873
	c0,2.825-1.191,5.447-4.971,5.447c-4.459,0-6.604-2.349-6.604-6.332c0-3.098-0.375-3.847-3.404-3.847v5.276h2.076v4.494H761.6V106.6
	h1.906V91.758H761.6V87.298z M770.52,91.724v5.787h1.531c1.975,0,3.27-0.953,3.27-2.757c0-2.008-1.125-3.03-3.1-3.03H770.52z"/>
<path fill="#807774" d="M786.014,99.077c0-7.353,4.902-12.425,11.949-12.425c8.34,0,12.221,5.004,12.221,12.664
	c0,7.694-4.289,12.392-11.982,12.392C791.086,111.707,786.014,107.587,786.014,99.077z M801.672,99.315
	c0-4.119-1.123-7.421-3.744-7.421c-2.076-0.034-3.506,2.961-3.506,7.183c0,4.459,1.602,7.285,3.779,7.285
	C800.346,106.362,801.672,103.536,801.672,99.315z"/>
<path fill="#807774" d="M811.209,87.298h11.064c7.896,0,9.43,3.132,9.43,7.013c0,2.655-2.111,4.527-4.938,4.936
	c2.35,0.34,4.459,2.383,4.459,4.834c0,1.464,0.205,2.315,0.816,2.315c0.512,0,0.783-0.409,0.783-1.089v-1.124h2.281v1.873
	c0,2.825-1.191,5.447-4.971,5.447c-4.459,0-6.604-2.349-6.604-6.332c0-3.098-0.375-3.847-3.404-3.847v5.276h2.076v4.494h-10.996
	V106.6h1.906V91.758h-1.906v-4.46H811.209z M820.129,91.724v5.787h1.531c1.975,0,3.268-0.953,3.268-2.757
	c0-2.008-1.123-3.03-3.098-3.03H820.129z"/>
<path fill="#807774" d="M745.375,128.84l9.805-12.221h7.047v13.413h1.805v3.676h-1.805v2.213h1.838v4.494h-11.029v-4.494h2.145
	v-2.213h-9.803v-4.868H745.375z M755.18,130.031v-6.298l-5.039,6.298H755.18z"/>
<path fill="#807774" d="M765.09,128.397c0-7.217,3.949-12.221,9.6-12.221c6.674,0,9.771,4.936,9.771,12.459
	c0,7.558-3.438,12.188-9.6,12.188C769.174,140.823,765.09,136.771,765.09,128.397z M777.618,128.635
	c0-4.051-1.295-6.979-2.963-6.979c-1.258-0.034-2.824,2.587-2.824,6.74c0,4.392,1.668,7.149,3.029,7.149
	C776.426,135.546,777.618,132.789,777.618,128.635z"/>
<path fill="#807774" d="M784.975,128.84l9.805-12.221h7.047v13.413h1.805v3.676h-1.805v2.213h1.838v4.494h-11.029v-4.494h2.146
	v-2.213h-9.805v-4.868H784.975z M794.78,130.031v-6.298l-5.039,6.298H794.78z"/>
</svg>
