<?xml version="1.0" standalone="no"?>
<!DOCTYPE svg PUBLIC "-//W3C//DTD SVG 20010904//EN"
 "http://www.w3.org/TR/2001/REC-SVG-20010904/DTD/svg10.dtd">
<svg version="1.0" xmlns="http://www.w3.org/2000/svg"
 width="128.000000pt" height="128.000000pt" viewBox="0 0 128.000000 128.000000"
 preserveAspectRatio="xMidYMid meet">
<metadata>
Created by potrace 1.11, written by Peter Selinger 2001-2013
</metadata>
<g transform="translate(0.000000,128.000000) scale(0.100000,-0.100000)"
fill="#000000" stroke="none">
<path d="M782 873 c15 -14 15 -19 2 -44 -8 -16 -37 -44 -64 -62 -43 -29 -57
-47 -94 -124 -24 -50 -56 -109 -70 -131 -29 -47 -33 -60 -12 -43 16 14 80 119
120 198 17 34 41 62 69 82 53 36 77 70 77 111 0 24 -4 30 -22 30 -21 0 -21 -1
-6 -17z"/>
<path d="M729 850 c-14 -19 -31 -48 -37 -63 -11 -26 -10 -27 7 -18 24 13 63
79 59 100 -2 11 -10 6 -29 -19z"/>
<path d="M600 700 c-8 -5 -12 -11 -9 -14 2 -3 11 -1 19 4 8 5 12 11 9 14 -2 3
-11 1 -19 -4z"/>
<path d="M448 443 c6 -2 18 -2 25 0 6 3 1 5 -13 5 -14 0 -19 -2 -12 -5z"/>
<path d="M875 440 c-12 -19 -78 -43 -138 -51 -61 -8 -61 -8 18 -5 81 2 138 23
149 53 6 15 -20 18 -29 3z"/>
<path d="M486 421 c-10 -11 -28 -22 -40 -24 -18 -4 -17 -4 5 -6 16 0 35 9 49
24 13 14 19 25 13 25 -5 0 -18 -9 -27 -19z"/>
</g>
</svg>
